<?xml version="1.0" standalone="no"?><!DOCTYPE svg PUBLIC "-//W3C//DTD SVG 1.1//EN" "http://www.w3.org/Graphics/SVG/1.1/DTD/svg11.dtd"><svg t="1612858486548" class="icon" viewBox="0 0 1024 1024" version="1.1" xmlns="http://www.w3.org/2000/svg" p-id="40599" xmlns:xlink="http://www.w3.org/1999/xlink" width="128" height="128"><defs><style type="text/css"></style></defs><path d="M544 256h-320a32 32 0 0 1 0-64h320a32 32 0 0 1 0 64z m-256 320h-64a32 32 0 0 0 0 64h64a32 32 0 0 0 0-64z m129.984 288a32 32 0 0 1-32 32H92.032A28.16 28.16 0 0 1 64 867.968V28.032C64 12.608 76.608 0 95.168 0h610.368L896 192v98.048a32 32 0 1 1-64-0.064V256h-190.464V64H128v768H385.984a32 32 0 0 1 32 32zM704 192h128l-128-128v128zM288 448h-64a32 32 0 0 0 0 64h64a32 32 0 0 0 0-64z m80-96a32 32 0 0 0-32-32H224a32 32 0 0 0 0 64h112a32 32 0 0 0 32-32z m616.256 598.656a38.016 38.016 0 0 1-53.632-3.712l-139.136-159.552a262.144 262.144 0 1 1 116.672-217.92c0 63.36-23.424 120.768-60.928 166.08l140.8 161.408a38.08 38.08 0 0 1-3.776 53.696z m-338.176-190.592c105.088 0 190.592-85.504 190.592-190.592S751.168 378.88 646.08 378.88c-105.152 0-190.592 85.504-190.592 190.592s85.44 190.592 190.592 190.592z" p-id="40600" fill="#bfbfbf"></path></svg>