<?xml version="1.0" standalone="no"?><!DOCTYPE svg PUBLIC "-//W3C//DTD SVG 1.1//EN" "http://www.w3.org/Graphics/SVG/1.1/DTD/svg11.dtd"><svg t="1612862946128" class="icon" viewBox="0 0 1024 1024" version="1.1" xmlns="http://www.w3.org/2000/svg" p-id="46124" xmlns:xlink="http://www.w3.org/1999/xlink" width="128" height="128"><defs><style type="text/css"></style></defs><path d="M512 1024C230.4 1024 0 793.6 0 512S230.4 0 512 0s512 230.4 512 512-230.4 512-512 512z m0-950.4C268.8 73.6 73.6 268.8 73.6 512S268.8 950.4 512 950.4 950.4 755.2 950.4 512 755.2 73.6 512 73.6z" p-id="46125" fill="#bfbfbf"></path><path d="M835.2 422.4c3.2-3.2 3.2-6.4-3.2-6.4l-211.2-32c-6.4 0-9.6-6.4-12.8-9.6l-92.8-188.8c-3.2-3.2-6.4-3.2-9.6 0l-92.8 188.8c-3.2 3.2-9.6 9.6-12.8 9.6l-211.2 32c-6.4 0-6.4 3.2-3.2 6.4l150.4 147.2c3.2 3.2 6.4 9.6 6.4 16l-35.2 208c3.2 6.4 3.2 6.4 9.6 6.4l188.8-99.2c3.2-3.2 12.8-3.2 16 0l188.8 99.2c3.2 3.2 6.4 0 6.4-3.2l-35.2-208c0-6.4 0-12.8 6.4-16l147.2-150.4z" p-id="46126" fill="#bfbfbf"></path></svg>