<?xml version="1.0" standalone="no"?><!DOCTYPE svg PUBLIC "-//W3C//DTD SVG 1.1//EN" "http://www.w3.org/Graphics/SVG/1.1/DTD/svg11.dtd"><svg t="1612800375577" class="icon" viewBox="0 0 1024 1024" version="1.1" xmlns="http://www.w3.org/2000/svg" p-id="1246" xmlns:xlink="http://www.w3.org/1999/xlink" width="128" height="128"><defs><style type="text/css"></style></defs><path d="M51.2 51.2v307.2h921.6V51.2H51.2z m204.8 204.8H153.6V153.6h102.4v102.4z m153.6 0H307.2V153.6h102.4v102.4z m460.8 0H460.8V153.6h409.6v102.4zM51.2 716.8h921.6V409.6H51.2v307.2z m409.6-204.8h409.6v102.4H460.8v-102.4z m-153.6 0h102.4v102.4H307.2v-102.4z m-153.6 0h102.4v102.4H153.6v-102.4zM256 870.4v102.4h512v-102.4H256z m358.4-102.4H409.6v51.2h204.8v-51.2z" p-id="1247" fill="#d8d8d8"></path></svg>